REM MD5 7894f15ef707816a724e3ab205607696
FILE "Uprising X (USA).bin" BINARY
  TRACK 01 MODE2/2352
    INDEX 01 00:00:00
  TRACK 02 AUDIO
    INDEX 00 54:46:00
    INDEX 01 54:48:00
  TRACK 03 AUDIO
    INDEX 00 55:53:10
    INDEX 01 55:55:10
  TRACK 04 AUDIO
    INDEX 00 57:38:19
    INDEX 01 57:40:19
REM LEADOUT 62:00:59
